<svg width="500" height="500" viewBox="0 0 500 500" fill="none" xmlns="http://www.w3.org/2000/svg">
<rect width="500" height="500" rx="60" fill="#DA1111"/>
<path d="M134.818 128C134.193 126.087 133.369 124.373 132.347 122.858C131.343 121.324 130.14 120.017 128.739 118.938C127.356 117.858 125.784 117.034 124.023 116.466C122.261 115.898 120.33 115.614 118.227 115.614C114.78 115.614 111.646 116.504 108.824 118.284C106.002 120.064 103.758 122.688 102.091 126.153C100.424 129.619 99.5909 133.871 99.5909 138.909C99.5909 143.947 100.434 148.199 102.119 151.665C103.805 155.131 106.087 157.754 108.966 159.534C111.845 161.314 115.083 162.205 118.682 162.205C122.015 162.205 124.951 161.494 127.489 160.074C130.045 158.634 132.034 156.608 133.455 153.994C134.894 151.362 135.614 148.265 135.614 144.705L137.773 145.159H120.273V138.909H142.432V145.159C142.432 149.951 141.409 154.117 139.364 157.659C137.337 161.201 134.534 163.947 130.955 165.898C127.394 167.83 123.303 168.795 118.682 168.795C113.53 168.795 109.004 167.583 105.102 165.159C101.22 162.735 98.1894 159.288 96.0114 154.818C93.8523 150.348 92.7727 145.045 92.7727 138.909C92.7727 134.307 93.3883 130.169 94.6193 126.494C95.8693 122.801 97.6307 119.657 99.9034 117.062C102.176 114.468 104.866 112.479 107.972 111.097C111.078 109.714 114.496 109.023 118.227 109.023C121.295 109.023 124.155 109.487 126.807 110.415C129.477 111.324 131.854 112.621 133.938 114.307C136.04 115.973 137.792 117.972 139.193 120.301C140.595 122.612 141.561 125.178 142.091 128H134.818ZM171.885 168.909C167.68 168.909 164.054 167.981 161.004 166.125C157.974 164.25 155.635 161.636 153.987 158.284C152.358 154.913 151.544 150.992 151.544 146.523C151.544 142.053 152.358 138.114 153.987 134.705C155.635 131.277 157.927 128.606 160.862 126.693C163.817 124.761 167.264 123.795 171.203 123.795C173.476 123.795 175.72 124.174 177.936 124.932C180.152 125.689 182.169 126.92 183.987 128.625C185.805 130.311 187.254 132.545 188.334 135.33C189.413 138.114 189.953 141.542 189.953 145.614V148.455H156.317V142.659H183.135C183.135 140.197 182.643 138 181.658 136.068C180.692 134.136 179.309 132.612 177.51 131.494C175.73 130.377 173.627 129.818 171.203 129.818C168.533 129.818 166.222 130.481 164.271 131.807C162.339 133.114 160.853 134.818 159.811 136.92C158.769 139.023 158.249 141.277 158.249 143.682V147.545C158.249 150.841 158.817 153.634 159.953 155.926C161.108 158.199 162.709 159.932 164.754 161.125C166.8 162.299 169.177 162.886 171.885 162.886C173.646 162.886 175.237 162.64 176.658 162.148C178.097 161.636 179.338 160.879 180.379 159.875C181.421 158.852 182.226 157.583 182.794 156.068L189.271 157.886C188.589 160.083 187.444 162.015 185.834 163.682C184.224 165.33 182.235 166.617 179.868 167.545C177.5 168.455 174.839 168.909 171.885 168.909ZM206.857 141.75V168H200.152V124.364H206.629V131.182H207.197C208.22 128.966 209.773 127.186 211.857 125.841C213.94 124.477 216.629 123.795 219.925 123.795C222.879 123.795 225.464 124.402 227.68 125.614C229.896 126.807 231.62 128.625 232.851 131.068C234.082 133.492 234.697 136.561 234.697 140.273V168H227.993V140.727C227.993 137.299 227.103 134.629 225.322 132.716C223.542 130.784 221.099 129.818 217.993 129.818C215.853 129.818 213.94 130.282 212.254 131.21C210.588 132.138 209.271 133.492 208.305 135.273C207.339 137.053 206.857 139.212 206.857 141.75ZM265.244 168.909C261.04 168.909 257.413 167.981 254.364 166.125C251.333 164.25 248.994 161.636 247.347 158.284C245.718 154.913 244.903 150.992 244.903 146.523C244.903 142.053 245.718 138.114 247.347 134.705C248.994 131.277 251.286 128.606 254.222 126.693C257.176 124.761 260.623 123.795 264.562 123.795C266.835 123.795 269.08 124.174 271.295 124.932C273.511 125.689 275.528 126.92 277.347 128.625C279.165 130.311 280.614 132.545 281.693 135.33C282.773 138.114 283.312 141.542 283.312 145.614V148.455H249.676V142.659H276.494C276.494 140.197 276.002 138 275.017 136.068C274.051 134.136 272.669 132.612 270.869 131.494C269.089 130.377 266.987 129.818 264.562 129.818C261.892 129.818 259.581 130.481 257.631 131.807C255.699 133.114 254.212 134.818 253.17 136.92C252.129 139.023 251.608 141.277 251.608 143.682V147.545C251.608 150.841 252.176 153.634 253.312 155.926C254.468 158.199 256.068 159.932 258.114 161.125C260.159 162.299 262.536 162.886 265.244 162.886C267.006 162.886 268.597 162.64 270.017 162.148C271.456 161.636 272.697 160.879 273.739 159.875C274.78 158.852 275.585 157.583 276.153 156.068L282.631 157.886C281.949 160.083 280.803 162.015 279.193 163.682C277.583 165.33 275.595 166.617 273.227 167.545C270.86 168.455 268.199 168.909 265.244 168.909ZM293.511 168V124.364H299.989V130.955H300.443C301.239 128.795 302.678 127.044 304.761 125.699C306.845 124.354 309.193 123.682 311.807 123.682C312.299 123.682 312.915 123.691 313.653 123.71C314.392 123.729 314.951 123.758 315.33 123.795V130.614C315.102 130.557 314.581 130.472 313.767 130.358C312.972 130.225 312.129 130.159 311.239 130.159C309.117 130.159 307.223 130.604 305.557 131.494C303.909 132.366 302.602 133.578 301.636 135.131C300.689 136.665 300.216 138.417 300.216 140.386V168H293.511ZM323.277 168V124.364H329.982V168H323.277ZM326.686 117.091C325.379 117.091 324.252 116.646 323.305 115.756C322.377 114.866 321.913 113.795 321.913 112.545C321.913 111.295 322.377 110.225 323.305 109.335C324.252 108.445 325.379 108 326.686 108C327.993 108 329.11 108.445 330.038 109.335C330.985 110.225 331.459 111.295 331.459 112.545C331.459 113.795 330.985 114.866 330.038 115.756C329.11 116.646 327.993 117.091 326.686 117.091ZM359.989 168.909C355.898 168.909 352.375 167.943 349.42 166.011C346.466 164.08 344.193 161.419 342.602 158.028C341.011 154.638 340.216 150.765 340.216 146.409C340.216 141.977 341.03 138.066 342.659 134.676C344.307 131.267 346.598 128.606 349.534 126.693C352.489 124.761 355.936 123.795 359.875 123.795C362.943 123.795 365.708 124.364 368.17 125.5C370.633 126.636 372.65 128.227 374.222 130.273C375.794 132.318 376.769 134.705 377.148 137.432H370.443C369.932 135.443 368.795 133.682 367.034 132.148C365.292 130.595 362.943 129.818 359.989 129.818C357.375 129.818 355.083 130.5 353.114 131.864C351.163 133.208 349.638 135.112 348.54 137.574C347.46 140.017 346.92 142.886 346.92 146.182C346.92 149.553 347.451 152.489 348.511 154.989C349.591 157.489 351.106 159.43 353.057 160.812C355.027 162.195 357.337 162.886 359.989 162.886C361.731 162.886 363.312 162.583 364.733 161.977C366.153 161.371 367.356 160.5 368.341 159.364C369.326 158.227 370.027 156.864 370.443 155.273H377.148C376.769 157.848 375.831 160.169 374.335 162.233C372.858 164.278 370.898 165.907 368.455 167.119C366.03 168.312 363.208 168.909 359.989 168.909Z" fill="white"/>
<path d="M55.3409 288V235.636H73.6477C77.2955 235.636 80.304 236.267 82.6733 237.528C85.0426 238.773 86.8068 240.452 87.9659 242.565C89.125 244.662 89.7045 246.989 89.7045 249.545C89.7045 251.795 89.304 253.653 88.5028 255.119C87.7188 256.585 86.679 257.744 85.3835 258.597C84.1051 259.449 82.7159 260.08 81.2159 260.489V261C82.8182 261.102 84.429 261.665 86.0483 262.688C87.6676 263.71 89.0227 265.176 90.1136 267.085C91.2045 268.994 91.75 271.33 91.75 274.091C91.75 276.716 91.1534 279.077 89.9602 281.173C88.767 283.27 86.8835 284.932 84.3097 286.159C81.7358 287.386 78.3864 288 74.2614 288H55.3409ZM61.6818 282.375H74.2614C78.4034 282.375 81.3438 281.574 83.0824 279.972C84.8381 278.352 85.7159 276.392 85.7159 274.091C85.7159 272.318 85.2642 270.682 84.3608 269.182C83.4574 267.665 82.1705 266.455 80.5 265.551C78.8295 264.631 76.8523 264.17 74.5682 264.17H61.6818V282.375ZM61.6818 258.648H73.4432C75.3523 258.648 77.0739 258.273 78.608 257.523C80.1591 256.773 81.3864 255.716 82.2898 254.352C83.2102 252.989 83.6705 251.386 83.6705 249.545C83.6705 247.244 82.8693 245.293 81.267 243.69C79.6648 242.071 77.125 241.261 73.6477 241.261H61.6818V258.648ZM112.908 288.92C110.419 288.92 108.161 288.452 106.132 287.514C104.104 286.56 102.493 285.188 101.3 283.398C100.107 281.591 99.5099 279.409 99.5099 276.852C99.5099 274.602 99.9531 272.778 100.839 271.381C101.726 269.966 102.911 268.858 104.393 268.057C105.876 267.256 107.513 266.659 109.303 266.267C111.109 265.858 112.925 265.534 114.749 265.295C117.135 264.989 119.07 264.759 120.553 264.605C122.053 264.435 123.143 264.153 123.825 263.761C124.524 263.369 124.874 262.687 124.874 261.716V261.511C124.874 258.989 124.183 257.028 122.803 255.631C121.439 254.233 119.368 253.534 116.589 253.534C113.709 253.534 111.45 254.165 109.814 255.426C108.178 256.687 107.027 258.034 106.362 259.466L100.635 257.42C101.658 255.034 103.021 253.176 104.726 251.847C106.447 250.5 108.322 249.562 110.351 249.034C112.396 248.489 114.408 248.216 116.385 248.216C117.646 248.216 119.095 248.369 120.732 248.676C122.385 248.966 123.979 249.571 125.513 250.491C127.064 251.412 128.351 252.801 129.374 254.659C130.396 256.517 130.908 259.006 130.908 262.125V288H124.874V282.682H124.567C124.158 283.534 123.476 284.446 122.521 285.418C121.567 286.389 120.297 287.216 118.712 287.898C117.126 288.58 115.192 288.92 112.908 288.92ZM113.828 283.5C116.214 283.5 118.226 283.031 119.862 282.094C121.516 281.156 122.76 279.946 123.595 278.463C124.447 276.98 124.874 275.42 124.874 273.784V268.261C124.618 268.568 124.055 268.849 123.186 269.105C122.334 269.344 121.345 269.557 120.22 269.744C119.112 269.915 118.03 270.068 116.973 270.205C115.933 270.324 115.089 270.426 114.442 270.511C112.874 270.716 111.408 271.048 110.044 271.509C108.697 271.952 107.607 272.625 106.771 273.528C105.953 274.415 105.544 275.625 105.544 277.159C105.544 279.256 106.32 280.841 107.871 281.915C109.439 282.972 111.425 283.5 113.828 283.5ZM147.546 273.682L147.444 266.216H148.671L165.853 248.727H173.319L155.012 267.239H154.501L147.546 273.682ZM141.921 288V235.636H147.955V288H141.921ZM166.876 288L151.535 268.568L155.83 264.375L174.546 288H166.876ZM195.934 288.818C192.15 288.818 188.886 287.983 186.141 286.312C183.414 284.625 181.309 282.273 179.826 279.256C178.36 276.222 177.627 272.693 177.627 268.67C177.627 264.648 178.36 261.102 179.826 258.034C181.309 254.949 183.371 252.545 186.013 250.824C188.673 249.085 191.775 248.216 195.32 248.216C197.366 248.216 199.386 248.557 201.38 249.239C203.374 249.92 205.19 251.028 206.826 252.562C208.462 254.08 209.766 256.091 210.738 258.597C211.71 261.102 212.195 264.187 212.195 267.852V270.409H181.923V265.193H206.059C206.059 262.977 205.616 261 204.729 259.261C203.86 257.523 202.616 256.151 200.996 255.145C199.394 254.139 197.502 253.636 195.32 253.636C192.917 253.636 190.837 254.233 189.082 255.426C187.343 256.602 186.005 258.136 185.067 260.028C184.13 261.92 183.661 263.949 183.661 266.114V269.591C183.661 272.557 184.173 275.071 185.195 277.134C186.235 279.179 187.675 280.739 189.516 281.812C191.357 282.869 193.496 283.398 195.934 283.398C197.519 283.398 198.951 283.176 200.229 282.733C201.525 282.273 202.641 281.591 203.579 280.688C204.516 279.767 205.241 278.625 205.752 277.261L211.582 278.898C210.968 280.875 209.937 282.614 208.488 284.114C207.039 285.597 205.249 286.756 203.119 287.591C200.988 288.409 198.593 288.818 195.934 288.818ZM221.374 288V248.727H227.204V254.659H227.613C228.329 252.716 229.624 251.139 231.499 249.929C233.374 248.719 235.488 248.114 237.84 248.114C238.283 248.114 238.837 248.122 239.502 248.139C240.167 248.156 240.67 248.182 241.011 248.216V254.352C240.806 254.301 240.337 254.224 239.604 254.122C238.888 254.003 238.13 253.943 237.329 253.943C235.42 253.943 233.715 254.344 232.215 255.145C230.732 255.929 229.556 257.02 228.687 258.418C227.835 259.798 227.408 261.375 227.408 263.148V288H221.374ZM253.245 302.727C252.222 302.727 251.31 302.642 250.509 302.472C249.708 302.318 249.154 302.165 248.847 302.011L250.381 296.693C251.847 297.068 253.143 297.205 254.268 297.102C255.393 297 256.39 296.497 257.259 295.594C258.146 294.707 258.955 293.267 259.688 291.273L260.813 288.205L246.29 248.727H252.836L263.677 280.023H264.086L274.927 248.727H281.472L264.802 293.727C264.052 295.756 263.123 297.435 262.015 298.764C260.907 300.111 259.62 301.108 258.154 301.756C256.705 302.403 255.069 302.727 253.245 302.727ZM291.374 288.409C290.112 288.409 289.03 287.957 288.126 287.054C287.223 286.151 286.771 285.068 286.771 283.807C286.771 282.545 287.223 281.463 288.126 280.56C289.03 279.656 290.112 279.205 291.374 279.205C292.635 279.205 293.717 279.656 294.621 280.56C295.524 281.463 295.976 282.545 295.976 283.807C295.976 284.642 295.763 285.409 295.337 286.108C294.928 286.807 294.374 287.369 293.675 287.795C292.993 288.205 292.226 288.409 291.374 288.409ZM322.759 288.818C319.077 288.818 315.906 287.949 313.247 286.21C310.588 284.472 308.543 282.077 307.111 279.026C305.679 275.974 304.963 272.489 304.963 268.568C304.963 264.58 305.696 261.06 307.162 258.009C308.645 254.94 310.707 252.545 313.349 250.824C316.009 249.085 319.111 248.216 322.656 248.216C325.418 248.216 327.906 248.727 330.122 249.75C332.338 250.773 334.153 252.205 335.568 254.045C336.983 255.886 337.861 258.034 338.202 260.489H332.168C331.707 258.699 330.685 257.114 329.099 255.733C327.531 254.335 325.418 253.636 322.759 253.636C320.406 253.636 318.344 254.25 316.571 255.477C314.815 256.687 313.443 258.401 312.455 260.616C311.483 262.815 310.997 265.398 310.997 268.364C310.997 271.398 311.474 274.04 312.429 276.29C313.401 278.54 314.764 280.287 316.52 281.531C318.293 282.776 320.372 283.398 322.759 283.398C324.327 283.398 325.75 283.125 327.028 282.58C328.307 282.034 329.389 281.25 330.276 280.227C331.162 279.205 331.793 277.977 332.168 276.545H338.202C337.861 278.864 337.017 280.952 335.67 282.81C334.341 284.651 332.577 286.116 330.378 287.207C328.196 288.281 325.656 288.818 322.759 288.818ZM362.977 288.818C359.432 288.818 356.321 287.974 353.645 286.287C350.986 284.599 348.906 282.239 347.406 279.205C345.923 276.17 345.182 272.625 345.182 268.568C345.182 264.477 345.923 260.906 347.406 257.855C348.906 254.804 350.986 252.435 353.645 250.747C356.321 249.06 359.432 248.216 362.977 248.216C366.523 248.216 369.625 249.06 372.284 250.747C374.96 252.435 377.04 254.804 378.523 257.855C380.023 260.906 380.773 264.477 380.773 268.568C380.773 272.625 380.023 276.17 378.523 279.205C377.04 282.239 374.96 284.599 372.284 286.287C369.625 287.974 366.523 288.818 362.977 288.818ZM362.977 283.398C365.67 283.398 367.886 282.707 369.625 281.327C371.364 279.946 372.651 278.131 373.486 275.881C374.321 273.631 374.739 271.193 374.739 268.568C374.739 265.943 374.321 263.497 373.486 261.23C372.651 258.963 371.364 257.131 369.625 255.733C367.886 254.335 365.67 253.636 362.977 253.636C360.284 253.636 358.068 254.335 356.33 255.733C354.591 257.131 353.304 258.963 352.469 261.23C351.634 263.497 351.216 265.943 351.216 268.568C351.216 271.193 351.634 273.631 352.469 275.881C353.304 278.131 354.591 279.946 356.33 281.327C358.068 282.707 360.284 283.398 362.977 283.398ZM389.984 288V248.727H395.813V254.864H396.325C397.143 252.767 398.464 251.139 400.288 249.98C402.112 248.804 404.302 248.216 406.859 248.216C409.45 248.216 411.606 248.804 413.327 249.98C415.066 251.139 416.421 252.767 417.393 254.864H417.802C418.808 252.835 420.316 251.224 422.327 250.031C424.339 248.821 426.751 248.216 429.563 248.216C433.075 248.216 435.947 249.315 438.18 251.514C440.413 253.696 441.529 257.097 441.529 261.716V288H435.495V261.716C435.495 258.818 434.702 256.747 433.117 255.503C431.532 254.259 429.665 253.636 427.518 253.636C424.756 253.636 422.617 254.472 421.1 256.142C419.583 257.795 418.825 259.892 418.825 262.432V288H412.688V261.102C412.688 258.869 411.964 257.071 410.515 255.707C409.066 254.327 407.2 253.636 404.915 253.636C403.347 253.636 401.881 254.054 400.518 254.889C399.171 255.724 398.08 256.884 397.245 258.366C396.427 259.832 396.018 261.528 396.018 263.455V288H389.984Z" fill="white"/>
<g clip-path="url(#clip0_2447_233)">
<path d="M314.846 438.596H304.541V400.262C304.541 400.257 304.541 392.217 304.541 392.217C304.541 385.196 298.42 379.483 290.897 379.483H257.399V361.202C257.399 358.615 255.144 356.511 252.372 356.511H251.654V350.479C251.654 349.368 250.69 348.468 249.5 348.468C248.31 348.468 247.346 349.368 247.346 350.479V356.511H246.628C243.856 356.511 241.601 358.615 241.601 361.202V379.483H206.259C198.736 379.483 192.615 385.196 192.615 392.217V438.596H184.154C182.965 438.596 182 439.496 182 440.606C182 441.717 182.965 442.617 184.154 442.617H185.402L186.644 446.675C187.558 449.661 190.88 452 194.207 452H304.793C308.12 452 311.442 449.661 312.356 446.675L313.598 442.617H314.846C316.035 442.617 317 441.717 317 440.606C317 439.496 316.035 438.596 314.846 438.596ZM245.91 361.202C245.91 360.839 246.238 360.532 246.628 360.532H252.372C252.762 360.532 253.09 360.839 253.09 361.202V379.483H245.91V361.202ZM206.259 383.504H290.897C296.045 383.504 300.232 387.413 300.232 392.217V398.383C296.337 398.871 294.065 400.646 292.03 402.244C289.861 403.948 288.147 405.294 284.449 405.294C280.75 405.294 279.037 403.948 276.867 402.244C274.483 400.371 271.781 398.249 266.511 398.249C261.241 398.249 258.539 400.371 256.155 402.244C253.986 403.948 252.273 405.294 248.575 405.294C244.877 405.294 243.164 403.948 240.994 402.244C238.611 400.371 235.909 398.249 230.639 398.249C225.369 398.249 222.668 400.371 220.284 402.244C219.01 403.245 217.806 404.191 216.248 404.743C215.411 405.039 214.858 405.787 214.858 406.623V420.371C214.858 421.48 213.892 422.382 212.704 422.382C211.516 422.382 210.55 421.48 210.55 420.371V406.689C210.58 405.841 210.032 405.052 209.161 404.743C207.602 404.191 206.398 403.245 205.124 402.244C203.09 400.646 200.819 398.871 196.924 398.383V392.217C196.924 387.413 201.111 383.504 206.259 383.504ZM196.924 402.455C199.231 402.877 200.653 403.987 202.35 405.321C203.462 406.194 204.689 407.159 206.242 407.918V420.371C206.242 423.698 209.141 426.403 212.704 426.403C216.268 426.403 219.167 423.698 219.167 420.371L219.168 407.918C220.72 407.159 221.948 406.194 223.059 405.321C225.228 403.616 226.942 402.27 230.64 402.27C234.338 402.27 236.051 403.616 238.22 405.321C240.604 407.193 243.306 409.316 248.576 409.316C253.846 409.316 256.547 407.193 258.931 405.321C261.1 403.616 262.813 402.27 266.511 402.27C270.21 402.27 271.923 403.616 274.093 405.321C276.477 407.193 279.179 409.316 284.449 409.316C289.72 409.316 292.421 407.193 294.805 405.321C296.503 403.988 297.925 402.877 300.233 402.455V438.596H196.924V402.455ZM308.213 445.571C307.827 446.831 306.197 447.979 304.793 447.979H194.207C192.803 447.979 191.173 446.831 190.787 445.571L189.883 442.617H309.117L308.213 445.571Z" fill="#FFFEFE"/>
<path d="M240.884 351.615C241.394 351.615 241.907 351.446 242.318 351.104C243.205 350.364 243.282 349.093 242.49 348.265C240.953 346.658 240.106 344.59 240.106 342.441C240.106 337.732 243.926 332.816 249.5 330.229C255.075 332.816 258.895 337.732 258.895 342.441C258.895 344.59 258.048 346.658 256.511 348.265C255.718 349.093 255.795 350.364 256.683 351.104C257.57 351.843 258.932 351.772 259.724 350.943C261.968 348.598 263.203 345.579 263.203 342.441C263.203 335.944 257.923 329.252 250.363 326.168C249.813 325.944 249.188 325.944 248.638 326.168C241.078 329.252 235.798 335.943 235.798 342.44C235.798 345.579 237.033 348.598 239.276 350.943C239.702 351.388 240.291 351.615 240.884 351.615Z" fill="#FFFEFE"/>
</g>
<line x1="52.0125" y1="42.5" x2="451.013" y2="44.5" stroke="white" stroke-width="5"/>
<defs>
<clipPath id="clip0_2447_233">
<rect width="135" height="126" fill="white" transform="translate(182 326)"/>
</clipPath>
</defs>
</svg>
